<svg xmlns="http://www.w3.org/2000/svg" xmlns:xlink="http://www.w3.org/1999/xlink" width="794" zoomAndPan="magnify" viewBox="0 0 595.5 842.249979" height="1123" preserveAspectRatio="xMidYMid meet" version="1.0"><defs><g/><clipPath id="8ca8735010"><path d="M 0.015625 0 L 594.984375 0 L 594.984375 841.5 L 0.015625 841.5 Z M 0.015625 0 " clip-rule="nonzero"/></clipPath><clipPath id="a2441c5f7b"><path d="M 0.015625 0 L 594.984375 0 L 594.984375 841.5 L 0.015625 841.5 Z M 0.015625 0 " clip-rule="nonzero"/></clipPath><clipPath id="379f7b9849"><rect x="0" width="551" y="0" height="202"/></clipPath><clipPath id="f1c7b60a8e"><rect x="0" width="595" y="0" height="842"/></clipPath></defs><g clip-path="url(#8ca8735010)"><path fill="#ffffff" d="M 0.015625 0 L 594.984375 0 L 594.984375 841.5 L 0.015625 841.5 Z M 0.015625 0 " fill-opacity="1" fill-rule="nonzero"/><g transform="matrix(1, 0, 0, 1, -0.000000000000000002, 0)"><g clip-path="url(#f1c7b60a8e)"><g clip-path="url(#a2441c5f7b)"><path fill="#fffae6" d="M 0.015625 0 L 595.210938 0 L 595.210938 841.816406 L 0.015625 841.816406 Z M 0.015625 0 " fill-opacity="1" fill-rule="nonzero"/></g><g transform="matrix(1, 0, 0, 1, 26, 158)"><g clip-path="url(#379f7b9849)"><g fill="#2f694b" fill-opacity="1"><g transform="translate(3.72305, 128.643049)"><g><path d="M 56.75 -37.84375 C 57.488281 -38.945312 58.429688 -39.335938 59.578125 -39.015625 C 60.734375 -38.691406 61.703125 -38.066406 62.484375 -37.140625 C 63.265625 -36.222656 63.425781 -35.304688 62.96875 -34.390625 C 62.226562 -32.816406 61.144531 -30.625 59.71875 -27.8125 C 58.289062 -25.007812 56.492188 -22.019531 54.328125 -18.84375 C 52.171875 -15.664062 49.550781 -12.648438 46.46875 -9.796875 C 43.382812 -6.953125 39.835938 -4.628906 35.828125 -2.828125 C 31.828125 -1.035156 27.25 -0.140625 22.09375 -0.140625 C 16.019531 -0.140625 11.207031 -1.425781 7.65625 -4 C 4.113281 -6.582031 1.695312 -9.851562 0.40625 -13.8125 C -0.875 -17.769531 -1.238281 -21.910156 -0.6875 -26.234375 C -0.132812 -30.566406 1.148438 -34.4375 3.171875 -37.84375 L 3.734375 -38.671875 C 6.210938 -41.984375 8.671875 -45.59375 11.109375 -49.5 C 13.554688 -53.414062 16.066406 -57.097656 18.640625 -60.546875 C 21.222656 -64.003906 23.894531 -66.859375 26.65625 -69.109375 C 29.414062 -71.367188 32.269531 -72.5 35.21875 -72.5 C 39.539062 -72.5 42.738281 -71.484375 44.8125 -69.453125 C 46.882812 -67.429688 47.875 -65.316406 47.78125 -63.109375 C 47.78125 -62.003906 47.296875 -61.082031 46.328125 -60.34375 C 45.359375 -59.613281 44.207031 -58.945312 42.875 -58.34375 C 41.539062 -57.75 40.367188 -57.015625 39.359375 -56.140625 C 38.347656 -55.265625 37.84375 -54.132812 37.84375 -52.75 C 37.84375 -51.925781 38.484375 -50.269531 39.765625 -47.78125 C 41.054688 -45.289062 42.4375 -42.503906 43.90625 -39.421875 C 45.382812 -36.335938 46.398438 -33.367188 46.953125 -30.515625 C 49.066406 -30.609375 50.882812 -31.34375 52.40625 -32.71875 C 53.925781 -34.101562 55.375 -35.8125 56.75 -37.84375 Z M 17.125 -28.578125 C 20.164062 -28.578125 22.515625 -29.546875 24.171875 -31.484375 C 25.828125 -33.421875 26.65625 -35.816406 26.65625 -38.671875 C 26.65625 -40.328125 26.398438 -42.03125 25.890625 -43.78125 C 25.390625 -45.53125 24.628906 -47.320312 23.609375 -49.15625 C 22.691406 -51 21.585938 -51 20.296875 -49.15625 C 18.546875 -46.582031 16.679688 -43.984375 14.703125 -41.359375 C 12.722656 -38.734375 10.953125 -36.410156 9.390625 -34.390625 C 9.390625 -32.734375 10.101562 -31.347656 11.53125 -30.234375 C 12.957031 -29.128906 14.820312 -28.578125 17.125 -28.578125 Z M 17.125 -28.578125 "/></g></g></g><g fill="#2f694b" fill-opacity="1"><g transform="translate(57.166729, 128.643049)"><g><path d="M 14.640625 0 C 9.941406 0 6.394531 -1.929688 4 -5.796875 C 1.613281 -9.660156 0.421875 -14.679688 0.421875 -20.859375 C 0.421875 -24.722656 0.898438 -28.835938 1.859375 -33.203125 C 2.828125 -37.578125 4.253906 -41.878906 6.140625 -46.109375 C 8.023438 -50.347656 10.394531 -54.191406 13.25 -57.640625 C 16.101562 -61.097656 19.414062 -63.863281 23.1875 -65.9375 C 26.96875 -68.007812 31.253906 -69.046875 36.046875 -69.046875 C 38.804688 -69.046875 40.945312 -68.789062 42.46875 -68.28125 C 43.988281 -67.78125 45.140625 -67.160156 45.921875 -66.421875 C 46.703125 -65.679688 47.367188 -65.054688 47.921875 -64.546875 C 48.472656 -64.046875 49.207031 -63.796875 50.125 -63.796875 C 51.6875 -63.796875 52.953125 -64.234375 53.921875 -65.109375 C 54.890625 -65.984375 55.972656 -66.859375 57.171875 -67.734375 C 58.367188 -68.609375 60.023438 -69.046875 62.140625 -69.046875 C 63.984375 -69.046875 65.25 -68.582031 65.9375 -67.65625 C 66.625 -66.738281 66.96875 -65.5 66.96875 -63.9375 C 66.96875 -61.363281 66.253906 -58.804688 64.828125 -56.265625 C 63.398438 -53.734375 61.90625 -50.445312 60.34375 -46.40625 C 58.039062 -41.332031 57.1875 -37.460938 57.78125 -34.796875 C 58.382812 -32.128906 60.207031 -30.796875 63.25 -30.796875 C 65.644531 -30.796875 67.710938 -31.414062 69.453125 -32.65625 C 71.203125 -33.894531 72.769531 -35.625 74.15625 -37.84375 C 74.894531 -38.945312 75.835938 -39.335938 76.984375 -39.015625 C 78.140625 -38.691406 79.109375 -38.066406 79.890625 -37.140625 C 80.671875 -36.222656 80.832031 -35.304688 80.375 -34.390625 C 78.71875 -31.160156 76.941406 -27.585938 75.046875 -23.671875 C 73.160156 -19.765625 71.066406 -16.015625 68.765625 -12.421875 C 66.460938 -8.835938 63.835938 -5.867188 60.890625 -3.515625 C 57.953125 -1.171875 54.550781 0 50.6875 0 C 45.894531 0 42.507812 -1.929688 40.53125 -5.796875 C 38.550781 -9.660156 37.972656 -14.445312 38.796875 -20.15625 L 38.25 -20.15625 C 35.488281 -14.539062 32.082031 -9.773438 28.03125 -5.859375 C 23.976562 -1.953125 19.515625 0 14.640625 0 Z M 28.453125 -28.578125 C 30.835938 -28.578125 32.925781 -29.269531 34.71875 -30.65625 C 36.519531 -32.039062 37.925781 -33.722656 38.9375 -35.703125 C 39.957031 -37.679688 40.46875 -39.632812 40.46875 -41.5625 C 40.46875 -43.863281 39.820312 -45.660156 38.53125 -46.953125 C 37.238281 -48.242188 35.488281 -48.890625 33.28125 -48.890625 C 30.882812 -48.890625 28.8125 -48.242188 27.0625 -46.953125 C 25.3125 -45.660156 23.953125 -44.023438 22.984375 -42.046875 C 22.023438 -40.066406 21.546875 -38.066406 21.546875 -36.046875 C 21.546875 -33.742188 22.164062 -31.921875 23.40625 -30.578125 C 24.644531 -29.242188 26.328125 -28.578125 28.453125 -28.578125 Z M 28.453125 -28.578125 "/></g></g></g><g fill="#2f694b" fill-opacity="1"><g transform="translate(128.148772, 128.643049)"><g><path d="M 64.765625 -37.84375 C 65.316406 -38.664062 66.191406 -38.960938 67.390625 -38.734375 C 68.585938 -38.503906 69.625 -38 70.5 -37.21875 C 71.375 -36.4375 71.535156 -35.492188 70.984375 -34.390625 C 69.691406 -31.628906 68.007812 -28.773438 65.9375 -25.828125 C 63.863281 -22.878906 61.285156 -20.414062 58.203125 -18.4375 C 55.117188 -16.457031 51.320312 -15.46875 46.8125 -15.46875 C 44.414062 -15.46875 42.253906 -16.15625 40.328125 -17.53125 C 36.921875 -12.5625 33.210938 -8.421875 29.203125 -5.109375 C 25.203125 -1.796875 21.082031 -0.140625 16.84375 -0.140625 C 13.164062 -0.140625 10.148438 -1.289062 7.796875 -3.59375 C 5.453125 -5.894531 3.75 -8.882812 2.6875 -12.5625 C 1.632812 -16.25 1.128906 -20.320312 1.171875 -24.78125 C 1.222656 -29.25 1.800781 -33.601562 2.90625 -37.84375 C 3.726562 -41.425781 4.804688 -45.054688 6.140625 -48.734375 C 7.472656 -52.421875 8.96875 -55.804688 10.625 -58.890625 C 12.289062 -61.972656 14.019531 -64.4375 15.8125 -66.28125 C 17.601562 -68.125 19.46875 -69.046875 21.40625 -69.046875 C 22.78125 -69.046875 23.835938 -68.628906 24.578125 -67.796875 C 25.316406 -66.972656 25.6875 -65.546875 25.6875 -63.515625 C 25.6875 -60.941406 25.15625 -58.132812 24.09375 -55.09375 C 23.039062 -52.0625 22.003906 -49.003906 20.984375 -45.921875 C 19.972656 -42.835938 19.46875 -39.910156 19.46875 -37.140625 C 19.46875 -34.566406 20.113281 -32.492188 21.40625 -30.921875 C 22.695312 -29.359375 24.769531 -28.578125 27.625 -28.578125 C 30.5625 -28.578125 32.8125 -29.222656 34.375 -30.515625 C 35.945312 -31.804688 37.054688 -32.957031 37.703125 -33.96875 C 37.242188 -36.082031 36.875 -38.195312 36.59375 -40.3125 C 36.320312 -42.4375 36.1875 -44.601562 36.1875 -46.8125 C 36.1875 -50.863281 36.664062 -54.59375 37.625 -58 C 38.59375 -61.40625 40.113281 -64.144531 42.1875 -66.21875 C 44.257812 -68.289062 46.859375 -69.328125 49.984375 -69.328125 C 53.859375 -69.328125 56.300781 -67.710938 57.3125 -64.484375 C 58.320312 -61.265625 58.085938 -56.847656 56.609375 -51.234375 C 55.140625 -45.617188 52.519531 -39.175781 48.75 -31.90625 C 50.125 -31.351562 51.78125 -31.078125 53.71875 -31.078125 C 55.738281 -31.078125 57.671875 -31.601562 59.515625 -32.65625 C 61.359375 -33.71875 63.109375 -35.445312 64.765625 -37.84375 Z M 64.765625 -37.84375 "/></g></g></g><g fill="#2f694b" fill-opacity="1"><g transform="translate(189.740192, 128.643049)"><g><path d="M 14.640625 0 C 9.941406 0 6.394531 -1.929688 4 -5.796875 C 1.613281 -9.660156 0.421875 -14.679688 0.421875 -20.859375 C 0.421875 -24.722656 0.898438 -28.835938 1.859375 -33.203125 C 2.828125 -37.578125 4.253906 -41.878906 6.140625 -46.109375 C 8.023438 -50.347656 10.394531 -54.191406 13.25 -57.640625 C 16.101562 -61.097656 19.414062 -63.863281 23.1875 -65.9375 C 26.96875 -68.007812 31.253906 -69.046875 36.046875 -69.046875 C 38.804688 -69.046875 40.945312 -68.789062 42.46875 -68.28125 C 43.988281 -67.78125 45.140625 -67.160156 45.921875 -66.421875 C 46.703125 -65.679688 47.367188 -65.054688 47.921875 -64.546875 C 48.472656 -64.046875 49.207031 -63.796875 50.125 -63.796875 C 51.6875 -63.796875 52.953125 -64.234375 53.921875 -65.109375 C 54.890625 -65.984375 55.972656 -66.859375 57.171875 -67.734375 C 58.367188 -68.609375 60.023438 -69.046875 62.140625 -69.046875 C 63.984375 -69.046875 65.25 -68.582031 65.9375 -67.65625 C 66.625 -66.738281 66.96875 -65.5 66.96875 -63.9375 C 66.96875 -61.363281 66.253906 -58.804688 64.828125 -56.265625 C 63.398438 -53.734375 61.90625 -50.445312 60.34375 -46.40625 C 58.039062 -41.332031 57.1875 -37.460938 57.78125 -34.796875 C 58.382812 -32.128906 60.207031 -30.796875 63.25 -30.796875 C 65.644531 -30.796875 67.710938 -31.414062 69.453125 -32.65625 C 71.203125 -33.894531 72.769531 -35.625 74.15625 -37.84375 C 74.894531 -38.945312 75.835938 -39.335938 76.984375 -39.015625 C 78.140625 -38.691406 79.109375 -38.066406 79.890625 -37.140625 C 80.671875 -36.222656 80.832031 -35.304688 80.375 -34.390625 C 78.71875 -31.160156 76.941406 -27.585938 75.046875 -23.671875 C 73.160156 -19.765625 71.066406 -16.015625 68.765625 -12.421875 C 66.460938 -8.835938 63.835938 -5.867188 60.890625 -3.515625 C 57.953125 -1.171875 54.550781 0 50.6875 0 C 45.894531 0 42.507812 -1.929688 40.53125 -5.796875 C 38.550781 -9.660156 37.972656 -14.445312 38.796875 -20.15625 L 38.25 -20.15625 C 35.488281 -14.539062 32.082031 -9.773438 28.03125 -5.859375 C 23.976562 -1.953125 19.515625 0 14.640625 0 Z M 28.453125 -28.578125 C 30.835938 -28.578125 32.925781 -29.269531 34.71875 -30.65625 C 36.519531 -32.039062 37.925781 -33.722656 38.9375 -35.703125 C 39.957031 -37.679688 40.46875 -39.632812 40.46875 -41.5625 C 40.46875 -43.863281 39.820312 -45.660156 38.53125 -46.953125 C 37.238281 -48.242188 35.488281 -48.890625 33.28125 -48.890625 C 30.882812 -48.890625 28.8125 -48.242188 27.0625 -46.953125 C 25.3125 -45.660156 23.953125 -44.023438 22.984375 -42.046875 C 22.023438 -40.066406 21.546875 -38.066406 21.546875 -36.046875 C 21.546875 -33.742188 22.164062 -31.921875 23.40625 -30.578125 C 24.644531 -29.242188 26.328125 -28.578125 28.453125 -28.578125 Z M 28.453125 -28.578125 "/></g></g></g><g fill="#2f694b" fill-opacity="1"><g transform="translate(260.722219, 128.643049)"><g><path d="M 8.703125 0 C 5.472656 0 2.984375 -0.960938 1.234375 -2.890625 C -0.503906 -4.828125 -1.375 -7.222656 -1.375 -10.078125 C -1.375 -13.304688 -1.003906 -17.332031 -0.265625 -22.15625 C 0.460938 -26.988281 1.609375 -32.21875 3.171875 -37.84375 C 4.742188 -43.269531 6.472656 -48.351562 8.359375 -53.09375 C 10.242188 -57.832031 12.175781 -61.675781 14.15625 -64.625 C 16.132812 -67.570312 18 -69.046875 19.75 -69.046875 C 21.59375 -69.046875 22.8125 -68.515625 23.40625 -67.453125 C 24 -66.398438 24.296875 -65.179688 24.296875 -63.796875 C 24.296875 -61.128906 24.941406 -59.472656 26.234375 -58.828125 C 27.523438 -58.179688 29.273438 -58.960938 31.484375 -61.171875 C 34.066406 -63.660156 36.738281 -65.59375 39.5 -66.96875 C 42.257812 -68.351562 45.15625 -69.046875 48.1875 -69.046875 C 52.425781 -69.046875 55.554688 -67.800781 57.578125 -65.3125 C 59.609375 -62.832031 60.625 -59.84375 60.625 -56.34375 C 60.625 -53.945312 60.253906 -51.757812 59.515625 -49.78125 C 58.773438 -47.800781 58.035156 -45.867188 57.296875 -43.984375 C 56.566406 -42.097656 56.203125 -40.003906 56.203125 -37.703125 C 56.203125 -33.097656 58.410156 -30.796875 62.828125 -30.796875 C 64.953125 -30.796875 66.726562 -31.460938 68.15625 -32.796875 C 69.582031 -34.128906 70.984375 -35.8125 72.359375 -37.84375 C 73.097656 -38.945312 74.066406 -39.335938 75.265625 -39.015625 C 76.460938 -38.691406 77.453125 -38.066406 78.234375 -37.140625 C 79.015625 -36.222656 79.128906 -35.304688 78.578125 -34.390625 C 77.648438 -32.910156 76.539062 -30.765625 75.25 -27.953125 C 73.96875 -25.148438 72.425781 -22.160156 70.625 -18.984375 C 68.832031 -15.804688 66.738281 -12.769531 64.34375 -9.875 C 61.957031 -6.976562 59.265625 -4.609375 56.265625 -2.765625 C 53.273438 -0.921875 49.894531 0 46.125 0 C 41.800781 0 38.765625 -1.425781 37.015625 -4.28125 C 35.265625 -7.132812 34.390625 -10.492188 34.390625 -14.359375 C 34.390625 -17.859375 34.867188 -21.195312 35.828125 -24.375 C 36.796875 -27.550781 37.765625 -30.453125 38.734375 -33.078125 C 39.703125 -35.703125 40.1875 -37.929688 40.1875 -39.765625 C 40.1875 -41.335938 39.703125 -42.535156 38.734375 -43.359375 C 37.765625 -44.191406 36.5 -44.609375 34.9375 -44.609375 C 32.269531 -44.609375 29.804688 -43.476562 27.546875 -41.21875 C 25.296875 -38.96875 23.476562 -36.046875 22.09375 -32.453125 C 20.71875 -28.859375 20.03125 -24.992188 20.03125 -20.859375 L 20.03125 -14.640625 C 20.03125 -12.335938 19.75 -10.054688 19.1875 -7.796875 C 18.632812 -5.546875 17.550781 -3.679688 15.9375 -2.203125 C 14.332031 -0.734375 11.921875 0 8.703125 0 Z M 8.703125 0 "/></g></g></g><g fill="#2f694b" fill-opacity="1"><g transform="translate(329.909006, 128.643049)"><g><path d="M 8.703125 0 C 5.472656 0 2.984375 -0.960938 1.234375 -2.890625 C -0.503906 -4.828125 -1.375 -7.222656 -1.375 -10.078125 C -1.375 -13.304688 -1.003906 -17.332031 -0.265625 -22.15625 C 0.460938 -26.988281 1.609375 -32.21875 3.171875 -37.84375 C 4.742188 -43.269531 6.472656 -48.351562 8.359375 -53.09375 C 10.242188 -57.832031 12.175781 -61.675781 14.15625 -64.625 C 16.132812 -67.570312 18 -69.046875 19.75 -69.046875 C 21.59375 -69.046875 22.8125 -68.515625 23.40625 -67.453125 C 24 -66.398438 24.296875 -65.179688 24.296875 -63.796875 C 24.296875 -61.128906 24.941406 -59.472656 26.234375 -58.828125 C 27.523438 -58.179688 29.273438 -58.960938 31.484375 -61.171875 C 34.066406 -63.660156 36.738281 -65.59375 39.5 -66.96875 C 42.257812 -68.351562 45.15625 -69.046875 48.1875 -69.046875 C 52.425781 -69.046875 55.554688 -67.800781 57.578125 -65.3125 C 59.609375 -62.832031 60.625 -59.84375 60.625 -56.34375 C 60.625 -53.945312 60.253906 -51.757812 59.515625 -49.78125 C 58.773438 -47.800781 58.035156 -45.867188 57.296875 -43.984375 C 56.566406 -42.097656 56.203125 -40.003906 56.203125 -37.703125 C 56.203125 -33.097656 58.410156 -30.796875 62.828125 -30.796875 C 64.953125 -30.796875 66.726562 -31.460938 68.15625 -32.796875 C 69.582031 -34.128906 70.984375 -35.8125 72.359375 -37.84375 C 73.097656 -38.945312 74.066406 -39.335938 75.265625 -39.015625 C 76.460938 -38.691406 77.453125 -38.066406 78.234375 -37.140625 C 79.015625 -36.222656 79.128906 -35.304688 78.578125 -34.390625 C 77.648438 -32.910156 76.539062 -30.765625 75.25 -27.953125 C 73.96875 -25.148438 72.425781 -22.160156 70.625 -18.984375 C 68.832031 -15.804688 66.738281 -12.769531 64.34375 -9.875 C 61.957031 -6.976562 59.265625 -4.609375 56.265625 -2.765625 C 53.273438 -0.921875 49.894531 0 46.125 0 C 41.800781 0 38.765625 -1.425781 37.015625 -4.28125 C 35.265625 -7.132812 34.390625 -10.492188 34.390625 -14.359375 C 34.390625 -17.859375 34.867188 -21.195312 35.828125 -24.375 C 36.796875 -27.550781 37.765625 -30.453125 38.734375 -33.078125 C 39.703125 -35.703125 40.1875 -37.929688 40.1875 -39.765625 C 40.1875 -41.335938 39.703125 -42.535156 38.734375 -43.359375 C 37.765625 -44.191406 36.5 -44.609375 34.9375 -44.609375 C 32.269531 -44.609375 29.804688 -43.476562 27.546875 -41.21875 C 25.296875 -38.96875 23.476562 -36.046875 22.09375 -32.453125 C 20.71875 -28.859375 20.03125 -24.992188 20.03125 -20.859375 L 20.03125 -14.640625 C 20.03125 -12.335938 19.75 -10.054688 19.1875 -7.796875 C 18.632812 -5.546875 17.550781 -3.679688 15.9375 -2.203125 C 14.332031 -0.734375 11.921875 0 8.703125 0 Z M 8.703125 0 "/></g></g></g><g fill="#2f694b" fill-opacity="1"><g transform="translate(399.095792, 128.643049)"><g><path d="M 14.640625 0 C 9.941406 0 6.394531 -1.929688 4 -5.796875 C 1.613281 -9.660156 0.421875 -14.679688 0.421875 -20.859375 C 0.421875 -24.722656 0.898438 -28.835938 1.859375 -33.203125 C 2.828125 -37.578125 4.253906 -41.878906 6.140625 -46.109375 C 8.023438 -50.347656 10.394531 -54.191406 13.25 -57.640625 C 16.101562 -61.097656 19.414062 -63.863281 23.1875 -65.9375 C 26.96875 -68.007812 31.253906 -69.046875 36.046875 -69.046875 C 38.804688 -69.046875 40.945312 -68.789062 42.46875 -68.28125 C 43.988281 -67.78125 45.140625 -67.160156 45.921875 -66.421875 C 46.703125 -65.679688 47.367188 -65.054688 47.921875 -64.546875 C 48.472656 -64.046875 49.207031 -63.796875 50.125 -63.796875 C 51.6875 -63.796875 52.953125 -64.234375 53.921875 -65.109375 C 54.890625 -65.984375 55.972656 -66.859375 57.171875 -67.734375 C 58.367188 -68.609375 60.023438 -69.046875 62.140625 -69.046875 C 63.984375 -69.046875 65.25 -68.582031 65.9375 -67.65625 C 66.625 -66.738281 66.96875 -65.5 66.96875 -63.9375 C 66.96875 -61.363281 66.253906 -58.804688 64.828125 -56.265625 C 63.398438 -53.734375 61.90625 -50.445312 60.34375 -46.40625 C 58.039062 -41.332031 57.1875 -37.460938 57.78125 -34.796875 C 58.382812 -32.128906 60.207031 -30.796875 63.25 -30.796875 C 65.644531 -30.796875 67.710938 -31.414062 69.453125 -32.65625 C 71.203125 -33.894531 72.769531 -35.625 74.15625 -37.84375 C 74.894531 -38.945312 75.835938 -39.335938 76.984375 -39.015625 C 78.140625 -38.691406 79.109375 -38.066406 79.890625 -37.140625 C 80.671875 -36.222656 80.832031 -35.304688 80.375 -34.390625 C 78.71875 -31.160156 76.941406 -27.585938 75.046875 -23.671875 C 73.160156 -19.765625 71.066406 -16.015625 68.765625 -12.421875 C 66.460938 -8.835938 63.835938 -5.867188 60.890625 -3.515625 C 57.953125 -1.171875 54.550781 0 50.6875 0 C 45.894531 0 42.507812 -1.929688 40.53125 -5.796875 C 38.550781 -9.660156 37.972656 -14.445312 38.796875 -20.15625 L 38.25 -20.15625 C 35.488281 -14.539062 32.082031 -9.773438 28.03125 -5.859375 C 23.976562 -1.953125 19.515625 0 14.640625 0 Z M 28.453125 -28.578125 C 30.835938 -28.578125 32.925781 -29.269531 34.71875 -30.65625 C 36.519531 -32.039062 37.925781 -33.722656 38.9375 -35.703125 C 39.957031 -37.679688 40.46875 -39.632812 40.46875 -41.5625 C 40.46875 -43.863281 39.820312 -45.660156 38.53125 -46.953125 C 37.238281 -48.242188 35.488281 -48.890625 33.28125 -48.890625 C 30.882812 -48.890625 28.8125 -48.242188 27.0625 -46.953125 C 25.3125 -45.660156 23.953125 -44.023438 22.984375 -42.046875 C 22.023438 -40.066406 21.546875 -38.066406 21.546875 -36.046875 C 21.546875 -33.742188 22.164062 -31.921875 23.40625 -30.578125 C 24.644531 -29.242188 26.328125 -28.578125 28.453125 -28.578125 Z M 28.453125 -28.578125 "/></g></g></g><g fill="#2f694b" fill-opacity="1"><g transform="translate(470.077804, 128.643049)"><g><path d="M 9.390625 0 C 5.429688 0 2.644531 -1.351562 1.03125 -4.0625 C -0.570312 -6.78125 -1.375 -10.164062 -1.375 -14.21875 C -1.375 -17.71875 -0.9375 -21.539062 -0.0625 -25.6875 C 0.8125 -29.832031 1.9375 -33.882812 3.3125 -37.84375 C 8.007812 -51.28125 11.988281 -62.554688 15.25 -71.671875 C 18.519531 -80.785156 21.675781 -87.664062 24.71875 -92.3125 C 27.757812 -96.96875 31.117188 -99.296875 34.796875 -99.296875 C 37.648438 -99.296875 39.421875 -98.234375 40.109375 -96.109375 C 40.804688 -93.992188 40.140625 -90.726562 38.109375 -86.3125 C 36.359375 -82.351562 34.445312 -78.507812 32.375 -74.78125 C 30.3125 -71.050781 28.863281 -67.578125 28.03125 -64.359375 C 27.289062 -61.503906 27.359375 -59.890625 28.234375 -59.515625 C 29.109375 -59.148438 30.285156 -59.703125 31.765625 -61.171875 C 34.335938 -63.660156 37.003906 -65.59375 39.765625 -66.96875 C 42.523438 -68.351562 45.425781 -69.046875 48.46875 -69.046875 C 52.707031 -69.046875 55.835938 -67.800781 57.859375 -65.3125 C 59.890625 -62.832031 60.90625 -59.84375 60.90625 -56.34375 C 60.90625 -53.945312 60.535156 -51.757812 59.796875 -49.78125 C 59.054688 -47.800781 58.316406 -45.867188 57.578125 -43.984375 C 56.847656 -42.097656 56.484375 -40.003906 56.484375 -37.703125 C 56.484375 -33.097656 58.597656 -30.796875 62.828125 -30.796875 C 64.953125 -30.796875 66.726562 -31.460938 68.15625 -32.796875 C 69.582031 -34.128906 70.984375 -35.8125 72.359375 -37.84375 C 73.097656 -38.945312 74.066406 -39.335938 75.265625 -39.015625 C 76.460938 -38.691406 77.453125 -38.066406 78.234375 -37.140625 C 79.015625 -36.222656 79.128906 -35.304688 78.578125 -34.390625 C 77.648438 -32.910156 76.539062 -30.765625 75.25 -27.953125 C 73.96875 -25.148438 72.425781 -22.160156 70.625 -18.984375 C 68.832031 -15.804688 66.738281 -12.769531 64.34375 -9.875 C 61.957031 -6.976562 59.265625 -4.609375 56.265625 -2.765625 C 53.273438 -0.921875 49.894531 0 46.125 0 C 41.613281 0 38.457031 -1.425781 36.65625 -4.28125 C 34.863281 -7.132812 33.96875 -10.492188 33.96875 -14.359375 C 33.96875 -17.859375 34.519531 -21.195312 35.625 -24.375 C 36.726562 -27.550781 37.8125 -30.453125 38.875 -33.078125 C 39.9375 -35.703125 40.46875 -37.929688 40.46875 -39.765625 C 40.46875 -41.335938 39.984375 -42.535156 39.015625 -43.359375 C 38.046875 -44.191406 36.78125 -44.609375 35.21875 -44.609375 C 32.539062 -44.609375 30.070312 -43.476562 27.8125 -41.21875 C 25.5625 -38.96875 23.742188 -36.046875 22.359375 -32.453125 C 20.984375 -28.859375 20.296875 -24.992188 20.296875 -20.859375 L 20.296875 -14.640625 C 20.296875 -12.335938 20.019531 -10.054688 19.46875 -7.796875 C 18.914062 -5.546875 17.859375 -3.679688 16.296875 -2.203125 C 14.734375 -0.734375 12.429688 0 9.390625 0 Z M 9.390625 0 "/></g></g></g></g></g></g></g></g></svg>