<svg xmlns="http://www.w3.org/2000/svg" xmlns:xlink="http://www.w3.org/1999/xlink" width="2000" zoomAndPan="magnify" viewBox="0 0 1500 1499.999933" height="2000" preserveAspectRatio="xMidYMid meet" version="1.0"><defs><g/><clipPath id="ee0feae3a5"><rect x="0" width="1387" y="0" height="506"/></clipPath></defs><g transform="matrix(1, 0, 0, 1, 67, 496)"><g clip-path="url(#ee0feae3a5)"><g fill="#2f694b" fill-opacity="1"><g transform="translate(7.897695, 321.796166)"><g><path d="M 143.09375 -95.40625 C 144.957031 -98.1875 147.335938 -99.171875 150.234375 -98.359375 C 153.140625 -97.546875 155.578125 -95.976562 157.546875 -93.65625 C 159.515625 -91.332031 159.921875 -89.007812 158.765625 -86.6875 C 156.910156 -82.75 154.179688 -77.238281 150.578125 -70.15625 C 146.984375 -63.070312 142.457031 -55.523438 137 -47.515625 C 131.550781 -39.515625 124.9375 -31.914062 117.15625 -24.71875 C 109.382812 -17.519531 100.445312 -11.65625 90.34375 -7.125 C 80.25 -2.601562 68.703125 -0.34375 55.703125 -0.34375 C 40.390625 -0.34375 28.265625 -3.59375 19.328125 -10.09375 C 10.390625 -16.59375 4.296875 -24.832031 1.046875 -34.8125 C -2.203125 -44.789062 -3.128906 -55.234375 -1.734375 -66.140625 C -0.347656 -77.054688 2.898438 -86.8125 8.015625 -95.40625 L 9.40625 -97.484375 C 15.664062 -105.835938 21.867188 -114.945312 28.015625 -124.8125 C 34.171875 -134.675781 40.5 -143.960938 47 -152.671875 C 53.5 -161.378906 60.226562 -168.578125 67.1875 -174.265625 C 74.15625 -179.953125 81.351562 -182.796875 88.78125 -182.796875 C 99.6875 -182.796875 107.75 -180.238281 112.96875 -175.125 C 118.195312 -170.019531 120.695312 -164.679688 120.46875 -159.109375 C 120.46875 -156.328125 119.25 -154.003906 116.8125 -152.140625 C 114.375 -150.285156 111.472656 -148.601562 108.109375 -147.09375 C 104.742188 -145.59375 101.785156 -143.738281 99.234375 -141.53125 C 96.679688 -139.320312 95.40625 -136.476562 95.40625 -133 C 95.40625 -130.914062 97.023438 -126.738281 100.265625 -120.46875 C 103.515625 -114.195312 107 -107.171875 110.71875 -99.390625 C 114.4375 -91.617188 116.988281 -84.140625 118.375 -76.953125 C 123.71875 -77.179688 128.300781 -79.035156 132.125 -82.515625 C 135.957031 -85.992188 139.613281 -90.289062 143.09375 -95.40625 Z M 43.171875 -72.078125 C 50.828125 -72.078125 56.742188 -74.507812 60.921875 -79.375 C 65.109375 -84.25 67.203125 -90.285156 67.203125 -97.484375 C 67.203125 -101.660156 66.5625 -105.953125 65.28125 -110.359375 C 64.007812 -114.773438 62.09375 -119.304688 59.53125 -123.953125 C 57.21875 -128.585938 54.4375 -128.585938 51.1875 -123.953125 C 46.769531 -117.453125 42.066406 -110.894531 37.078125 -104.28125 C 32.085938 -97.664062 27.617188 -91.800781 23.671875 -86.6875 C 23.671875 -82.507812 25.46875 -79.03125 29.0625 -76.25 C 32.664062 -73.46875 37.367188 -72.078125 43.171875 -72.078125 Z M 43.171875 -72.078125 "/></g></g></g><g fill="#2f694b" fill-opacity="1"><g transform="translate(142.636404, 321.796166)"><g><path d="M 36.90625 0 C 25.070312 0 16.132812 -4.875 10.09375 -14.625 C 4.0625 -24.375 1.046875 -37.023438 1.046875 -52.578125 C 1.046875 -62.328125 2.265625 -72.710938 4.703125 -83.734375 C 7.140625 -94.765625 10.734375 -105.617188 15.484375 -116.296875 C 20.242188 -126.972656 26.222656 -136.660156 33.421875 -145.359375 C 40.617188 -154.066406 48.972656 -161.03125 58.484375 -166.25 C 68.003906 -171.476562 78.800781 -174.09375 90.875 -174.09375 C 97.832031 -174.09375 103.226562 -173.453125 107.0625 -172.171875 C 110.894531 -170.890625 113.796875 -169.320312 115.765625 -167.46875 C 117.742188 -165.613281 119.425781 -164.046875 120.8125 -162.765625 C 122.207031 -161.492188 124.066406 -160.859375 126.390625 -160.859375 C 130.335938 -160.859375 133.523438 -161.957031 135.953125 -164.15625 C 138.390625 -166.363281 141.117188 -168.570312 144.140625 -170.78125 C 147.160156 -172.988281 151.335938 -174.09375 156.671875 -174.09375 C 161.316406 -174.09375 164.507812 -172.929688 166.25 -170.609375 C 167.988281 -168.285156 168.859375 -165.148438 168.859375 -161.203125 C 168.859375 -154.703125 167.054688 -148.257812 163.453125 -141.875 C 159.859375 -135.5 156.09375 -127.203125 152.15625 -116.984375 C 146.351562 -104.222656 144.203125 -94.472656 145.703125 -87.734375 C 147.210938 -81.003906 151.800781 -77.640625 159.46875 -77.640625 C 165.5 -77.640625 170.71875 -79.207031 175.125 -82.34375 C 179.539062 -85.476562 183.488281 -89.832031 186.96875 -95.40625 C 188.820312 -98.1875 191.195312 -99.171875 194.09375 -98.359375 C 197 -97.546875 199.4375 -95.976562 201.40625 -93.65625 C 203.382812 -91.332031 203.796875 -89.007812 202.640625 -86.6875 C 198.460938 -78.570312 193.992188 -69.582031 189.234375 -59.71875 C 184.472656 -49.851562 179.191406 -40.390625 173.390625 -31.328125 C 167.585938 -22.273438 160.972656 -14.789062 153.546875 -8.875 C 146.117188 -2.957031 137.53125 0 127.78125 0 C 115.707031 0 107.175781 -4.875 102.1875 -14.625 C 97.195312 -24.375 95.75 -36.441406 97.84375 -50.828125 L 96.4375 -50.828125 C 89.476562 -36.671875 80.890625 -24.660156 70.671875 -14.796875 C 60.460938 -4.929688 49.207031 0 36.90625 0 Z M 71.71875 -72.078125 C 77.757812 -72.078125 83.039062 -73.816406 87.5625 -77.296875 C 92.09375 -80.773438 95.632812 -85.007812 98.1875 -90 C 100.738281 -94.988281 102.015625 -99.921875 102.015625 -104.796875 C 102.015625 -110.597656 100.390625 -115.125 97.140625 -118.375 C 93.890625 -121.625 89.476562 -123.25 83.90625 -123.25 C 77.875 -123.25 72.648438 -121.625 68.234375 -118.375 C 63.828125 -115.125 60.40625 -111.003906 57.96875 -106.015625 C 55.53125 -101.023438 54.3125 -95.976562 54.3125 -90.875 C 54.3125 -85.070312 55.878906 -80.488281 59.015625 -77.125 C 62.148438 -73.757812 66.382812 -72.078125 71.71875 -72.078125 Z M 71.71875 -72.078125 "/></g></g></g><g fill="#2f694b" fill-opacity="1"><g transform="translate(321.591692, 321.796166)"><g><path d="M 163.296875 -95.40625 C 164.679688 -97.488281 166.882812 -98.238281 169.90625 -97.65625 C 172.925781 -97.082031 175.535156 -95.804688 177.734375 -93.828125 C 179.941406 -91.859375 180.347656 -89.476562 178.953125 -86.6875 C 175.710938 -79.726562 171.476562 -72.535156 166.25 -65.109375 C 161.03125 -57.679688 154.53125 -51.472656 146.75 -46.484375 C 138.976562 -41.492188 129.40625 -39 118.03125 -39 C 112 -39 106.546875 -40.738281 101.671875 -44.21875 C 93.078125 -31.6875 83.734375 -21.238281 73.640625 -12.875 C 63.546875 -4.519531 53.160156 -0.34375 42.484375 -0.34375 C 33.191406 -0.34375 25.585938 -3.242188 19.671875 -9.046875 C 13.753906 -14.847656 9.457031 -22.390625 6.78125 -31.671875 C 4.113281 -40.960938 2.835938 -51.238281 2.953125 -62.5 C 3.078125 -73.757812 4.53125 -84.726562 7.3125 -95.40625 C 9.394531 -104.457031 12.117188 -113.625 15.484375 -122.90625 C 18.859375 -132.1875 22.632812 -140.710938 26.8125 -148.484375 C 30.988281 -156.265625 35.335938 -162.476562 39.859375 -167.125 C 44.390625 -171.769531 49.09375 -174.09375 53.96875 -174.09375 C 57.445312 -174.09375 60.113281 -173.046875 61.96875 -170.953125 C 63.832031 -168.859375 64.765625 -165.257812 64.765625 -160.15625 C 64.765625 -153.65625 63.425781 -146.578125 60.75 -138.921875 C 58.082031 -131.265625 55.472656 -123.546875 52.921875 -115.765625 C 50.367188 -107.992188 49.09375 -100.625 49.09375 -93.65625 C 49.09375 -87.15625 50.71875 -81.929688 53.96875 -77.984375 C 57.21875 -74.046875 62.441406 -72.078125 69.640625 -72.078125 C 77.066406 -72.078125 82.75 -73.703125 86.6875 -76.953125 C 90.632812 -80.203125 93.421875 -83.101562 95.046875 -85.65625 C 93.890625 -90.988281 92.960938 -96.320312 92.265625 -101.65625 C 91.566406 -107 91.21875 -112.457031 91.21875 -118.03125 C 91.21875 -128.238281 92.4375 -137.632812 94.875 -146.21875 C 97.3125 -154.8125 101.140625 -161.71875 106.359375 -166.9375 C 111.585938 -172.164062 118.144531 -174.78125 126.03125 -174.78125 C 135.78125 -174.78125 141.929688 -170.71875 144.484375 -162.59375 C 147.046875 -154.46875 146.46875 -143.328125 142.75 -129.171875 C 139.039062 -115.015625 132.425781 -98.765625 122.90625 -80.421875 C 126.382812 -79.035156 130.5625 -78.34375 135.4375 -78.34375 C 140.539062 -78.34375 145.414062 -79.675781 150.0625 -82.34375 C 154.707031 -85.007812 159.117188 -89.363281 163.296875 -95.40625 Z M 163.296875 -95.40625 "/></g></g></g><g fill="#2f694b" fill-opacity="1"><g transform="translate(476.871955, 321.796166)"><g><path d="M 36.90625 0 C 25.070312 0 16.132812 -4.875 10.09375 -14.625 C 4.0625 -24.375 1.046875 -37.023438 1.046875 -52.578125 C 1.046875 -62.328125 2.265625 -72.710938 4.703125 -83.734375 C 7.140625 -94.765625 10.734375 -105.617188 15.484375 -116.296875 C 20.242188 -126.972656 26.222656 -136.660156 33.421875 -145.359375 C 40.617188 -154.066406 48.972656 -161.03125 58.484375 -166.25 C 68.003906 -171.476562 78.800781 -174.09375 90.875 -174.09375 C 97.832031 -174.09375 103.226562 -173.453125 107.0625 -172.171875 C 110.894531 -170.890625 113.796875 -169.320312 115.765625 -167.46875 C 117.742188 -165.613281 119.425781 -164.046875 120.8125 -162.765625 C 122.207031 -161.492188 124.066406 -160.859375 126.390625 -160.859375 C 130.335938 -160.859375 133.523438 -161.957031 135.953125 -164.15625 C 138.390625 -166.363281 141.117188 -168.570312 144.140625 -170.78125 C 147.160156 -172.988281 151.335938 -174.09375 156.671875 -174.09375 C 161.316406 -174.09375 164.507812 -172.929688 166.25 -170.609375 C 167.988281 -168.285156 168.859375 -165.148438 168.859375 -161.203125 C 168.859375 -154.703125 167.054688 -148.257812 163.453125 -141.875 C 159.859375 -135.5 156.09375 -127.203125 152.15625 -116.984375 C 146.351562 -104.222656 144.203125 -94.472656 145.703125 -87.734375 C 147.210938 -81.003906 151.800781 -77.640625 159.46875 -77.640625 C 165.5 -77.640625 170.71875 -79.207031 175.125 -82.34375 C 179.539062 -85.476562 183.488281 -89.832031 186.96875 -95.40625 C 188.820312 -98.1875 191.195312 -99.171875 194.09375 -98.359375 C 197 -97.546875 199.4375 -95.976562 201.40625 -93.65625 C 203.382812 -91.332031 203.796875 -89.007812 202.640625 -86.6875 C 198.460938 -78.570312 193.992188 -69.582031 189.234375 -59.71875 C 184.472656 -49.851562 179.191406 -40.390625 173.390625 -31.328125 C 167.585938 -22.273438 160.972656 -14.789062 153.546875 -8.875 C 146.117188 -2.957031 137.53125 0 127.78125 0 C 115.707031 0 107.175781 -4.875 102.1875 -14.625 C 97.195312 -24.375 95.75 -36.441406 97.84375 -50.828125 L 96.4375 -50.828125 C 89.476562 -36.671875 80.890625 -24.660156 70.671875 -14.796875 C 60.460938 -4.929688 49.207031 0 36.90625 0 Z M 71.71875 -72.078125 C 77.757812 -72.078125 83.039062 -73.816406 87.5625 -77.296875 C 92.09375 -80.773438 95.632812 -85.007812 98.1875 -90 C 100.738281 -94.988281 102.015625 -99.921875 102.015625 -104.796875 C 102.015625 -110.597656 100.390625 -115.125 97.140625 -118.375 C 93.890625 -121.625 89.476562 -123.25 83.90625 -123.25 C 77.875 -123.25 72.648438 -121.625 68.234375 -118.375 C 63.828125 -115.125 60.40625 -111.003906 57.96875 -106.015625 C 55.53125 -101.023438 54.3125 -95.976562 54.3125 -90.875 C 54.3125 -85.070312 55.878906 -80.488281 59.015625 -77.125 C 62.148438 -73.757812 66.382812 -72.078125 71.71875 -72.078125 Z M 71.71875 -72.078125 "/></g></g></g><g fill="#2f694b" fill-opacity="1"><g transform="translate(655.827203, 321.796166)"><g><path d="M 21.9375 0 C 13.8125 0 7.539062 -2.4375 3.125 -7.3125 C -1.28125 -12.1875 -3.484375 -18.222656 -3.484375 -25.421875 C -3.484375 -33.546875 -2.550781 -43.695312 -0.6875 -55.875 C 1.164062 -68.0625 4.066406 -81.238281 8.015625 -95.40625 C 11.953125 -109.09375 16.300781 -121.910156 21.0625 -133.859375 C 25.820312 -145.816406 30.695312 -155.507812 35.6875 -162.9375 C 40.675781 -170.375 45.375 -174.09375 49.78125 -174.09375 C 54.425781 -174.09375 57.503906 -172.753906 59.015625 -170.078125 C 60.523438 -167.410156 61.28125 -164.335938 61.28125 -160.859375 C 61.28125 -154.128906 62.90625 -149.953125 66.15625 -148.328125 C 69.40625 -146.703125 73.816406 -148.671875 79.390625 -154.234375 C 85.878906 -160.503906 92.601562 -165.378906 99.5625 -168.859375 C 106.53125 -172.347656 113.847656 -174.09375 121.515625 -174.09375 C 132.191406 -174.09375 140.082031 -170.957031 145.1875 -164.6875 C 150.289062 -158.414062 152.84375 -150.867188 152.84375 -142.046875 C 152.84375 -136.015625 151.914062 -130.503906 150.0625 -125.515625 C 148.207031 -120.523438 146.347656 -115.648438 144.484375 -110.890625 C 142.628906 -106.128906 141.703125 -100.847656 141.703125 -95.046875 C 141.703125 -83.441406 147.273438 -77.640625 158.421875 -77.640625 C 163.753906 -77.640625 168.21875 -79.320312 171.8125 -82.6875 C 175.414062 -86.050781 178.957031 -90.289062 182.4375 -95.40625 C 184.300781 -98.1875 186.738281 -99.171875 189.75 -98.359375 C 192.769531 -97.546875 195.265625 -95.976562 197.234375 -93.65625 C 199.210938 -91.332031 199.503906 -89.007812 198.109375 -86.6875 C 195.785156 -82.976562 193 -77.582031 189.75 -70.5 C 186.5 -63.425781 182.609375 -55.882812 178.078125 -47.875 C 173.554688 -39.863281 168.28125 -32.203125 162.25 -24.890625 C 156.21875 -17.578125 149.425781 -11.597656 141.875 -6.953125 C 134.332031 -2.316406 125.804688 0 116.296875 0 C 105.378906 0 97.710938 -3.597656 93.296875 -10.796875 C 88.890625 -17.992188 86.6875 -26.460938 86.6875 -36.203125 C 86.6875 -45.023438 87.90625 -53.441406 90.34375 -61.453125 C 92.78125 -69.460938 95.21875 -76.773438 97.65625 -83.390625 C 100.09375 -90.003906 101.3125 -95.632812 101.3125 -100.28125 C 101.3125 -104.21875 100.09375 -107.226562 97.65625 -109.3125 C 95.21875 -111.40625 92.03125 -112.453125 88.09375 -112.453125 C 81.351562 -112.453125 75.140625 -109.609375 69.453125 -103.921875 C 63.773438 -98.242188 59.191406 -90.875 55.703125 -81.8125 C 52.222656 -72.757812 50.484375 -63.015625 50.484375 -52.578125 L 50.484375 -36.90625 C 50.484375 -31.101562 49.785156 -25.359375 48.390625 -19.671875 C 47.003906 -13.984375 44.28125 -9.28125 40.21875 -5.5625 C 36.15625 -1.851562 30.0625 0 21.9375 0 Z M 21.9375 0 "/></g></g></g><g fill="#2f694b" fill-opacity="1"><g transform="translate(830.256406, 321.796166)"><g><path d="M 21.9375 0 C 13.8125 0 7.539062 -2.4375 3.125 -7.3125 C -1.28125 -12.1875 -3.484375 -18.222656 -3.484375 -25.421875 C -3.484375 -33.546875 -2.550781 -43.695312 -0.6875 -55.875 C 1.164062 -68.0625 4.066406 -81.238281 8.015625 -95.40625 C 11.953125 -109.09375 16.300781 -121.910156 21.0625 -133.859375 C 25.820312 -145.816406 30.695312 -155.507812 35.6875 -162.9375 C 40.675781 -170.375 45.375 -174.09375 49.78125 -174.09375 C 54.425781 -174.09375 57.503906 -172.753906 59.015625 -170.078125 C 60.523438 -167.410156 61.28125 -164.335938 61.28125 -160.859375 C 61.28125 -154.128906 62.90625 -149.953125 66.15625 -148.328125 C 69.40625 -146.703125 73.816406 -148.671875 79.390625 -154.234375 C 85.878906 -160.503906 92.601562 -165.378906 99.5625 -168.859375 C 106.53125 -172.347656 113.847656 -174.09375 121.515625 -174.09375 C 132.191406 -174.09375 140.082031 -170.957031 145.1875 -164.6875 C 150.289062 -158.414062 152.84375 -150.867188 152.84375 -142.046875 C 152.84375 -136.015625 151.914062 -130.503906 150.0625 -125.515625 C 148.207031 -120.523438 146.347656 -115.648438 144.484375 -110.890625 C 142.628906 -106.128906 141.703125 -100.847656 141.703125 -95.046875 C 141.703125 -83.441406 147.273438 -77.640625 158.421875 -77.640625 C 163.753906 -77.640625 168.21875 -79.320312 171.8125 -82.6875 C 175.414062 -86.050781 178.957031 -90.289062 182.4375 -95.40625 C 184.300781 -98.1875 186.738281 -99.171875 189.75 -98.359375 C 192.769531 -97.546875 195.265625 -95.976562 197.234375 -93.65625 C 199.210938 -91.332031 199.503906 -89.007812 198.109375 -86.6875 C 195.785156 -82.976562 193 -77.582031 189.75 -70.5 C 186.5 -63.425781 182.609375 -55.882812 178.078125 -47.875 C 173.554688 -39.863281 168.28125 -32.203125 162.25 -24.890625 C 156.21875 -17.578125 149.425781 -11.597656 141.875 -6.953125 C 134.332031 -2.316406 125.804688 0 116.296875 0 C 105.378906 0 97.710938 -3.597656 93.296875 -10.796875 C 88.890625 -17.992188 86.6875 -26.460938 86.6875 -36.203125 C 86.6875 -45.023438 87.90625 -53.441406 90.34375 -61.453125 C 92.78125 -69.460938 95.21875 -76.773438 97.65625 -83.390625 C 100.09375 -90.003906 101.3125 -95.632812 101.3125 -100.28125 C 101.3125 -104.21875 100.09375 -107.226562 97.65625 -109.3125 C 95.21875 -111.40625 92.03125 -112.453125 88.09375 -112.453125 C 81.351562 -112.453125 75.140625 -109.609375 69.453125 -103.921875 C 63.773438 -98.242188 59.191406 -90.875 55.703125 -81.8125 C 52.222656 -72.757812 50.484375 -63.015625 50.484375 -52.578125 L 50.484375 -36.90625 C 50.484375 -31.101562 49.785156 -25.359375 48.390625 -19.671875 C 47.003906 -13.984375 44.28125 -9.28125 40.21875 -5.5625 C 36.15625 -1.851562 30.0625 0 21.9375 0 Z M 21.9375 0 "/></g></g></g><g fill="#2f694b" fill-opacity="1"><g transform="translate(1004.68561, 321.796166)"><g><path d="M 36.90625 0 C 25.070312 0 16.132812 -4.875 10.09375 -14.625 C 4.0625 -24.375 1.046875 -37.023438 1.046875 -52.578125 C 1.046875 -62.328125 2.265625 -72.710938 4.703125 -83.734375 C 7.140625 -94.765625 10.734375 -105.617188 15.484375 -116.296875 C 20.242188 -126.972656 26.222656 -136.660156 33.421875 -145.359375 C 40.617188 -154.066406 48.972656 -161.03125 58.484375 -166.25 C 68.003906 -171.476562 78.800781 -174.09375 90.875 -174.09375 C 97.832031 -174.09375 103.226562 -173.453125 107.0625 -172.171875 C 110.894531 -170.890625 113.796875 -169.320312 115.765625 -167.46875 C 117.742188 -165.613281 119.425781 -164.046875 120.8125 -162.765625 C 122.207031 -161.492188 124.066406 -160.859375 126.390625 -160.859375 C 130.335938 -160.859375 133.523438 -161.957031 135.953125 -164.15625 C 138.390625 -166.363281 141.117188 -168.570312 144.140625 -170.78125 C 147.160156 -172.988281 151.335938 -174.09375 156.671875 -174.09375 C 161.316406 -174.09375 164.507812 -172.929688 166.25 -170.609375 C 167.988281 -168.285156 168.859375 -165.148438 168.859375 -161.203125 C 168.859375 -154.703125 167.054688 -148.257812 163.453125 -141.875 C 159.859375 -135.5 156.09375 -127.203125 152.15625 -116.984375 C 146.351562 -104.222656 144.203125 -94.472656 145.703125 -87.734375 C 147.210938 -81.003906 151.800781 -77.640625 159.46875 -77.640625 C 165.5 -77.640625 170.71875 -79.207031 175.125 -82.34375 C 179.539062 -85.476562 183.488281 -89.832031 186.96875 -95.40625 C 188.820312 -98.1875 191.195312 -99.171875 194.09375 -98.359375 C 197 -97.546875 199.4375 -95.976562 201.40625 -93.65625 C 203.382812 -91.332031 203.796875 -89.007812 202.640625 -86.6875 C 198.460938 -78.570312 193.992188 -69.582031 189.234375 -59.71875 C 184.472656 -49.851562 179.191406 -40.390625 173.390625 -31.328125 C 167.585938 -22.273438 160.972656 -14.789062 153.546875 -8.875 C 146.117188 -2.957031 137.53125 0 127.78125 0 C 115.707031 0 107.175781 -4.875 102.1875 -14.625 C 97.195312 -24.375 95.75 -36.441406 97.84375 -50.828125 L 96.4375 -50.828125 C 89.476562 -36.671875 80.890625 -24.660156 70.671875 -14.796875 C 60.460938 -4.929688 49.207031 0 36.90625 0 Z M 71.71875 -72.078125 C 77.757812 -72.078125 83.039062 -73.816406 87.5625 -77.296875 C 92.09375 -80.773438 95.632812 -85.007812 98.1875 -90 C 100.738281 -94.988281 102.015625 -99.921875 102.015625 -104.796875 C 102.015625 -110.597656 100.390625 -115.125 97.140625 -118.375 C 93.890625 -121.625 89.476562 -123.25 83.90625 -123.25 C 77.875 -123.25 72.648438 -121.625 68.234375 -118.375 C 63.828125 -115.125 60.40625 -111.003906 57.96875 -106.015625 C 55.53125 -101.023438 54.3125 -95.976562 54.3125 -90.875 C 54.3125 -85.070312 55.878906 -80.488281 59.015625 -77.125 C 62.148438 -73.757812 66.382812 -72.078125 71.71875 -72.078125 Z M 71.71875 -72.078125 "/></g></g></g><g fill="#2f694b" fill-opacity="1"><g transform="translate(1183.64082, 321.796166)"><g><path d="M 23.671875 0 C 13.691406 0 6.671875 -3.421875 2.609375 -10.265625 C -1.453125 -17.117188 -3.484375 -25.648438 -3.484375 -35.859375 C -3.484375 -44.679688 -2.378906 -54.3125 -0.171875 -64.75 C 2.035156 -75.195312 4.878906 -85.414062 8.359375 -95.40625 C 20.191406 -129.289062 30.226562 -157.722656 38.46875 -180.703125 C 46.707031 -203.679688 54.65625 -221.03125 62.3125 -232.75 C 69.976562 -244.46875 78.453125 -250.328125 87.734375 -250.328125 C 94.929688 -250.328125 99.398438 -247.65625 101.140625 -242.3125 C 102.878906 -236.976562 101.195312 -228.742188 96.09375 -217.609375 C 91.6875 -207.628906 86.867188 -197.9375 81.640625 -188.53125 C 76.421875 -179.132812 72.765625 -170.375 70.671875 -162.25 C 68.816406 -155.050781 68.992188 -150.988281 71.203125 -150.0625 C 73.410156 -149.132812 76.367188 -150.523438 80.078125 -154.234375 C 86.578125 -160.503906 93.304688 -165.378906 100.265625 -168.859375 C 107.234375 -172.347656 114.546875 -174.09375 122.203125 -174.09375 C 132.878906 -174.09375 140.769531 -170.957031 145.875 -164.6875 C 150.988281 -158.414062 153.546875 -150.867188 153.546875 -142.046875 C 153.546875 -136.015625 152.613281 -130.503906 150.75 -125.515625 C 148.894531 -120.523438 147.039062 -115.648438 145.1875 -110.890625 C 143.332031 -106.128906 142.40625 -100.847656 142.40625 -95.046875 C 142.40625 -83.441406 147.742188 -77.640625 158.421875 -77.640625 C 163.753906 -77.640625 168.21875 -79.320312 171.8125 -82.6875 C 175.414062 -86.050781 178.957031 -90.289062 182.4375 -95.40625 C 184.300781 -98.1875 186.738281 -99.171875 189.75 -98.359375 C 192.769531 -97.546875 195.265625 -95.976562 197.234375 -93.65625 C 199.210938 -91.332031 199.503906 -89.007812 198.109375 -86.6875 C 195.785156 -82.976562 193 -77.582031 189.75 -70.5 C 186.5 -63.425781 182.609375 -55.882812 178.078125 -47.875 C 173.554688 -39.863281 168.28125 -32.203125 162.25 -24.890625 C 156.21875 -17.578125 149.425781 -11.597656 141.875 -6.953125 C 134.332031 -2.316406 125.804688 0 116.296875 0 C 104.921875 0 96.96875 -3.597656 92.4375 -10.796875 C 87.914062 -17.992188 85.65625 -26.460938 85.65625 -36.203125 C 85.65625 -45.023438 87.046875 -53.441406 89.828125 -61.453125 C 92.609375 -69.460938 95.332031 -76.773438 98 -83.390625 C 100.675781 -90.003906 102.015625 -95.632812 102.015625 -100.28125 C 102.015625 -104.21875 100.796875 -107.226562 98.359375 -109.3125 C 95.921875 -111.40625 92.726562 -112.453125 88.78125 -112.453125 C 82.050781 -112.453125 75.84375 -109.609375 70.15625 -103.921875 C 64.46875 -98.242188 59.882812 -90.875 56.40625 -81.8125 C 52.925781 -72.757812 51.1875 -63.015625 51.1875 -52.578125 L 51.1875 -36.90625 C 51.1875 -31.101562 50.488281 -25.359375 49.09375 -19.671875 C 47.695312 -13.984375 45.023438 -9.28125 41.078125 -5.5625 C 37.140625 -1.851562 31.335938 0 23.671875 0 Z M 23.671875 0 "/></g></g></g></g></g></svg>